<svg width="500" height="500" viewBox="0 0 500 500" xmlns="http://www.w3.org/2000/svg">
    <defs>
        <radialGradient id="glow" cx="50%" cy="50%" r="50%">
            <stop offset="0%" stop-color="#6366f1" stop-opacity="0.9"/>
            <stop offset="100%" stop-color="#1a1a2e" stop-opacity="0"/>
        </radialGradient>
    </defs>

    <rect width="500" height="500" rx="80" fill="#1a1a2e"/>

    <!-- outer vinyl -->
    <circle cx="250" cy="250" r="165" fill="none" stroke="#6366f1" stroke-width="4"/>
    <circle cx="250" cy="250" r="130" fill="none" stroke="#2a2a4e" stroke-width="2"/>
    <circle cx="250" cy="250" r="95" fill="none" stroke="#2a2a4e" stroke-width="1"/>

    <!-- center -->
    <circle cx="250" cy="250" r="48" fill="#6366f1"/>
    <circle cx="250" cy="250" r="90" fill="url(#glow)"/>

    <!-- stars (custom shape) -->
    <g fill="#ec4899" opacity="0.95">
        <!-- star 1 -->
        <g transform="translate(150 170) scale(0.3) rotate(-10 61 61)">
            <path d="M62.43,122.88h-1.98c0-16.15-6.04-30.27-18.11-42.34C30.27,68.47,16.16,62.43,0,62.43v-1.98
            c16.16,0,30.27-6.04,42.34-18.14C54.41,30.21,60.45,16.1,60.45,0h1.98c0,16.15,6.04,30.27,18.11,42.34
            c12.07,12.07,26.18,18.11,42.34,18.11v1.98c-16.15,0-30.27,6.04-42.34,18.11
            C68.47,92.61,62.43,106.72,62.43,122.88z"/>
        </g>

        <!-- star 2 -->
        <g transform="translate(330 210) scale(0.14) rotate(-18 61 61)">
            <path d="M62.43,122.88h-1.98c0-16.15-6.04-30.27-18.11-42.34C30.27,68.47,16.16,62.43,0,62.43v-1.98
            c16.16,0,30.27-6.04,42.34-18.14C54.41,30.21,60.45,16.1,60.45,0h1.98c0,16.15,6.04,30.27,18.11,42.34
            c12.07,12.07,26.18,18.11,42.34,18.11v1.98c-16.15,0-30.27,6.04-42.34,18.11
            C68.47,92.61,62.43,106.72,62.43,122.88z"/>
        </g>

        <!-- star 3 -->
        <g transform="translate(270 130) scale(0.21) rotate(22)">
            <path d="M62.43,122.88h-1.98c0-16.15-6.04-30.27-18.11-42.34C30.27,68.47,16.16,62.43,0,62.43v-1.98
            c16.16,0,30.27-6.04,42.34-18.14C54.41,30.21,60.45,16.1,60.45,0h1.98c0,16.15,6.04,30.27,18.11,42.34
            c12.07,12.07,26.18,18.11,42.34,18.11v1.98c-16.15,0-30.27,6.04-42.34,18.11
            C68.47,92.61,62.43,106.72,62.43,122.88z"/>
        </g>

        <!-- star 4 -->
        <g transform="translate(200 350) scale(0.24) rotate(-15)">
            <path d="M62.43,122.88h-1.98c0-16.15-6.04-30.27-18.11-42.34C30.27,68.47,16.16,62.43,0,62.43v-1.98
            c16.16,0,30.27-6.04,42.34-18.14C54.41,30.21,60.45,16.1,60.45,0h1.98c0,16.15,6.04,30.27,18.11,42.34
            c12.07,12.07,26.18,18.11,42.34,18.11v1.98c-16.15,0-30.27,6.04-42.34,18.11
            C68.47,92.61,62.43,106.72,62.43,122.88z"/>
        </g>
    </g>
</svg>
